<?xml version="1.0" encoding="utf-8"?>
<!-- Generator: Adobe Illustrator 24.1.0, SVG Export Plug-In . SVG Version: 6.00 Build 0)  -->
<svg version="1.1"
	 id="svg2" xmlns:cc="http://creativecommons.org/ns#" xmlns:dc="http://purl.org/dc/elements/1.1/" xmlns:inkscape="http://www.inkscape.org/namespaces/inkscape" xmlns:rdf="http://www.w3.org/1999/02/22-rdf-syntax-ns#" xmlns:sodipodi="http://sodipodi.sourceforge.net/DTD/sodipodi-0.dtd" xmlns:svg="http://www.w3.org/2000/svg"
	 xmlns="http://www.w3.org/2000/svg" xmlns:xlink="http://www.w3.org/1999/xlink" x="0px" y="0px" viewBox="0 0 522.8 811.7"
	 style="enable-background:new 0 0 522.8 811.7;" xml:space="preserve">
<style type="text/css">
	.st0{fill-rule:evenodd;clip-rule:evenodd;fill:#D3E0C8;stroke:#000000;stroke-miterlimit:5;}
	.st1{fill:none;stroke:#22241C;stroke-width:2.4;stroke-miterlimit:5;stroke-opacity:0.9916;}
	.st2{fill:#92A5AD;fill-opacity:0.9961;}
	.st3{fill:#00002B;}
	.st4{fill-rule:evenodd;clip-rule:evenodd;fill:#273551;stroke:#000000;stroke-width:1.1976;stroke-miterlimit:5;}
	.st5{opacity:8.900000e-02;fill:#6F6F91;stroke:#6F6F91;stroke-width:3.9174;stroke-miterlimit:5;enable-background:new    ;}
	.st6{opacity:5.600000e-02;fill:#6F6F91;stroke:#6F6F91;stroke-width:3.9174;stroke-miterlimit:5;enable-background:new    ;}
	.st7{opacity:5.600000e-02;fill:#6F6F91;enable-background:new    ;}
	.st8{opacity:0.116;fill:#6F6F91;enable-background:new    ;}
	.st9{fill:#FFFFFF;}
	.st10{clip-path:url(#SVGID_2_);}
	.st11{clip-path:url(#SVGID_4_);}
	.st12{clip-path:url(#SVGID_6_);}
	.st13{fill:#6F6F91;stroke:#6F6F91;stroke-width:3.9174;stroke-miterlimit:5;}
	.st14{opacity:0.252;}
	.st15{fill:#6F6F91;stroke:#6F6F91;stroke-width:5.5392;stroke-miterlimit:5;}
	.st16{fill:#6F6F91;}
	.st17{font-family:'Noteworthy-Light';}
	.st18{font-size:48px;}
	.st19{fill:#006680;}
</style>
<sodipodi:namedview  bordercolor="#666666" borderopacity="1" gridtolerance="10" guidetolerance="10" id="namedview4" inkscape:current-layer="g10" inkscape:cx="51.461223" inkscape:cy="405.82816" inkscape:pageopacity="0" inkscape:pageshadow="2" inkscape:window-height="980" inkscape:window-maximized="0" inkscape:window-width="1406" inkscape:window-x="65" inkscape:window-y="41" inkscape:zoom="0.81454783" objecttolerance="10" pagecolor="#ffffff" showgrid="false">
	</sodipodi:namedview>
<path id="path14" inkscape:connector-curvature="0" class="st0" d="M1.7,0.7h520.8v808.5H1.7V0.7L1.7,0.7z"/>
<path id="path84" inkscape:connector-curvature="0" class="st1" d="M1.6,1.2h520v183H1.6V1.2L1.6,1.2z"/>
<path id="path18" inkscape:connector-curvature="0" class="st2" d="M0.3,184.4h522V215H0.3V184.4z"/>
<path id="path82" inkscape:connector-curvature="0" class="st3" d="M1.6,1.2h520v183H1.6V1.2L1.6,1.2z"/>
<path id="path16" inkscape:connector-curvature="0" class="st4" d="M0.9,761.4h521.2V811H0.9C0.9,811.1,0.9,761.4,0.9,761.4z"/>
<path id="path130" inkscape:connector-curvature="0" class="st5" d="M261.9,628.5v0.2c-0.1,0.1-0.1,0.1-0.1,0.2
	c-0.4,1.9-0.6,4-0.7,6.3c0,0.2-0.1,0.3-0.3,0.3c-0.2,0-0.2-0.1-0.2-0.2v-0.1c0-0.3,0-0.6,0.1-1.1s0.2-0.9,0.2-1.2
	c0-0.8-0.1-1.4-0.4-1.6c-1.2-0.9-2.6-1.3-4.1-1.3h-0.5c-4.5,0-9.5,4.1-15,12.2c-2,3-3.9,6.4-5.8,10.2l-5.2,10.6
	c-0.4,0.7-1.4,2.7-3.1,6h10.8c0.2,0,0.3,0.1,0.3,0.2c-0.5,0.4-1,0.5-1.6,0.5h-5.2c-0.8,0-1.8,0-2.9,0.1h-1.9
	c-8.1,15.4-15.4,27.2-22,35.6c-14,17.9-26.7,26.9-38.1,26.9c-4.9,0-7.7-2.1-8.5-6.2v-0.2c0-0.2,0.1-0.3,0.2-0.3
	c0.2,0.1,0.3,0.2,0.3,0.5c0.5,3.7,3.2,5.5,7.9,5.5c5.7,0,11.7-2.3,18-6.8c5.6-4.1,10.9-9.3,15.9-15.8c3.8-5,7.9-11.3,12.2-19.1
	c3.6-6.6,7.1-13.3,10.7-19.9c-3.4,0-5.6,0.1-6.4,0.3c0,0,0,0.1-0.1,0.1c-0.2,0-0.3-0.1-0.3-0.2c0-0.1,0.1-0.1,0.2-0.2
	c0.7-0.6,2-0.9,4-0.9h0.9c0.4,0.1,0.7,0.1,0.9,0.1h1.3c5.2-9.4,10.3-17.9,15.4-25.5c7.3-11.1,13.7-16.6,19.1-16.6h0.3
	C260.7,626.8,261.9,627.4,261.9,628.5L261.9,628.5z"/>
<path id="path134" inkscape:connector-curvature="0" class="st6" d="M255.8,677.9c0,0.1,0,0.2-0.1,0.3c-1.8,2.7-4.1,5.1-6.8,7.2
	c-3.3,2.7-6.3,4-8.9,4c-2.8,0-4.4-1.9-4.8-5.6c-5.2,5.7-9.2,11-12.1,15.8c-0.9,1.7-1.6,3.3-2,5c0,0.3-0.2,0.5-0.3,0.5
	s-0.3-0.2-0.4-0.5c-0.6-1.8-0.9-2.6-0.9-2.4c0-0.3,0.2-0.7,0.6-1.2c1.8-2.8,4.4-6.1,7.8-10c2.1-2.4,4.6-5.1,7.3-8.1v-0.8
	c0-1.1,0.1-2.1,0.2-2.9c0.5-4.1,1.3-7.2,2.6-9.4c0.3-0.5,0.7-0.9,1.1-1.2l1.8-1c0-0.1,0.1-0.1,0.2-0.1c0.2,0,0.2,0.1,0.2,0.2
	c0,0.1,0,0.2-0.1,0.3c-2,3.6-3.1,7.5-3.2,11.8c4.6-4.8,8.7-8.8,12.1-11.9c0.2-0.2,0.3-0.2,0.5-0.2s0.2,0.1,0.2,0.4
	c0,0.3-0.1,0.4-0.1,0.3c-0.2,0.7-0.4,1.2-0.8,1.5c-4.4,3.6-8.4,7.3-11.9,11v0.5c0,4.2,1.5,6.3,4.4,6.3c1.2,0,2.7-0.5,4.3-1.4
	c3.4-1.9,6.3-4.7,8.7-8.4c0.2-0.2,0.3-0.2,0.3-0.2C255.7,677.7,255.8,677.8,255.8,677.9z"/>
<path id="path3900" inkscape:connector-curvature="0" class="st7" d="M268.2,697.3l13.5-29l12,29H268.2l-4.5,3.3h38.2L284,656.9
	l-20.4,43.7L268.2,697.3z"/>
<path id="path3902" inkscape:connector-curvature="0" class="st7" d="M327.7,693.5l-0.2,0.2l-0.1,0.1l-0.2,0.2l-0.1,0.1l-0.3,0.3
	l-0.1,0.1l-0.1,0.1l-0.1,0.1l-0.1,0.1v0.1l-0.2,0.2v0.1l-0.1,0.1l-0.1,0.1c-1.5,1.9-2.2,2.6-2.9,2.6c-1,0-1.5-0.8-2-2.6
	c-0.1-0.5-0.2-0.9-0.3-1.1c-1.5-6.4-2.2-9.3-2.2-10.3c2.7-4.9,5-7.7,6.2-7.7c0.4,0,0.9,0.2,1.5,0.5c0.8,0.4,1.2,0.6,1.7,0.6
	c1.3,0,2.2-1,2.2-2.3s-1.1-2.4-2.6-2.4c-2.8,0-5.2,2.3-9.6,9.1l-0.7-3.4c-0.9-4.3-1.6-5.6-3.3-5.6c-1.4,0-3.6,0.6-7.5,1.8l-0.6,0.3
	l0.3,1c2.4-0.6,2.9-0.7,3.5-0.7c1.6,0,2,0.6,2.9,4.4l1.9,7.8l-5.2,7.4c-1.3,1.9-2.5,3.1-3.2,3.1c-0.4,0-1-0.2-1.7-0.6
	c-0.8-0.4-1.5-0.6-2-0.6c-1.2,0-2.2,1-2.2,2.2c0,1.7,1.3,2.6,3.2,2.6c2,0,2.7-0.6,5.9-4.4c1.7-2,3.1-3.8,5.7-7.4l1.9,7.6
	c0.8,3.3,1.7,4.2,3.6,4.2c2.4,0,4.1-1.5,7.8-7.2L327.7,693.5L327.7,693.5z"/>
<path id="path3944" inkscape:connector-curvature="0" class="st7" d="M453.8,696.5l13.5-29l12,29H453.8l-4.5,3.3h38.2l-17.8-43.7
	l-20.4,43.7L453.8,696.5z"/>
<path id="path3946" inkscape:connector-curvature="0" class="st8" d="M488.7,674.3h0.1l0.1-0.1h0.3l0.1-0.1h0.3l0.1-0.1h0.4l0.1-0.1
	h0.5c3.6,0,4.5,1.6,7.5,12.5c1.1,4.1,2.6,11.6,2.6,12.6s-0.4,2-1.3,3.1c-2,2.6-3.3,4.3-4,5c-1.3,1.4-2.1,1.9-2.9,1.9
	c-0.4,0-0.8-0.3-1.5-0.7c-1-0.8-1.7-1.1-2.4-1.1c-1.4,0-2.5,1.1-2.5,2.4c0,1.6,1.4,2.8,3.3,2.8c4,0,12.4-9.5,19.2-22.1
	c4.3-7.8,6.1-12.3,6.1-15.4c0-1.9-1.6-3.5-3.5-3.5c-1.5,0-2.5,1-2.5,2.4c0,1,0.5,1.7,1.8,2.5c1.2,0.7,1.7,1.3,1.7,2.2
	c0,2.5-2.4,7.5-7.7,16.4l-1.3-7.3c-1-5.6-4.5-16.1-5.5-16.1h-0.3c-0.1,0.1-0.3,0.1-0.6,0.1c-0.6,0.1-2.9,0.4-6.2,1.1
	c-0.3,0.1-1.1,0.3-2,0.4L488.7,674.3L488.7,674.3z"/>
<path id="path3990" inkscape:connector-curvature="0" class="st6" d="M445,628.3v0.2c-0.1,0.1-0.1,0.1-0.1,0.2
	c-0.4,1.9-0.6,4-0.7,6.3c0,0.2-0.1,0.3-0.3,0.3c-0.2,0-0.2-0.1-0.2-0.2V635c0-0.3,0-0.6,0.1-1.1s0.2-0.9,0.2-1.2
	c0-0.8-0.1-1.4-0.4-1.6c-1.2-0.9-2.6-1.3-4.1-1.3h-0.6c-4.5,0-9.5,4.1-15,12.2c-2,3-3.9,6.4-5.8,10.2l-5.2,10.6
	c-0.4,0.7-1.4,2.7-3.1,6h10.8c0.2,0,0.3,0.1,0.3,0.2c-0.5,0.4-1,0.5-1.6,0.5h-5.2c-0.8,0-1.8,0-2.9,0.1h-1.9
	c-8.1,15.4-15.4,27.2-22,35.6c-14,17.9-26.7,26.9-38.1,26.9c-4.9,0-7.7-2.1-8.5-6.2v-0.2c0-0.2,0.1-0.3,0.2-0.3
	c0.2,0.1,0.3,0.2,0.3,0.5c0.5,3.7,3.2,5.5,7.9,5.5c5.7,0,11.7-2.3,18-6.8c5.6-4.1,10.9-9.4,15.9-15.8c3.8-5,7.9-11.3,12.2-19.1
	c3.5-6.6,7.1-13.3,10.7-19.9c-3.4,0-5.6,0.1-6.4,0.3c0,0.1,0,0.1-0.1,0.1c-0.2,0-0.3-0.1-0.3-0.2c0-0.1,0.1-0.1,0.2-0.2
	c0.7-0.6,2-0.9,4-0.9h0.9c0.4,0.1,0.7,0.1,0.9,0.1h1.2c5.2-9.4,10.3-17.9,15.4-25.5c7.3-11.1,13.7-16.6,19.1-16.6h0.3
	C443.8,626.6,445,627.2,445,628.3L445,628.3z"/>
<path id="path3994" inkscape:connector-curvature="0" class="st6" d="M442.8,663.2c-0.2,1.4-0.4,2-0.5,2s-0.2-0.2-0.3-0.5
	c-0.3-1.2-1.4-1.8-3.3-1.8h-0.1c-1.6,0-3.2,0.9-4.9,2.7c-1.3,1.3-2.9,3.5-4.8,6.7l-4.7,7.8c-7.2,11.9-13.1,20.5-17.8,25.7
	c-5.3,6-10.2,10.4-14.6,13.5c-6.2,4.3-12.3,6.4-18.3,6.4h-0.1c-6.5,0-10.9-2.6-13.2-7.8c-1-2.2-1.5-4.6-1.5-7.1
	c0-1.5,0.2-2.8,0.6-4.2c0.1-0.4,0.3-0.6,0.5-0.6s0.2,0.1,0.2,0.4c0,0.3-0.1,0.9-0.4,1.8c-0.3,0.9-0.4,1.6-0.4,2.2v0.4
	c0,4.1,2,7.2,6,9.5c3.2,1.8,7.1,2.7,11.4,2.7h0.2c3.1,0,6-0.5,8.5-1.4c8.4-3.1,16.9-11.1,25.6-23.8c0.5-0.7,2.2-3.4,5.1-8.1
	c2.9-4.6,4.3-6.9,4.2-7c-1.1,0.7-2.8,1.5-5.2,2.4h-0.2c-0.9,0-1.3-0.5-1.3-1.6c0-0.1,0-0.1,0.1-0.2v-0.1c0.1-0.9,1-2.9,2.7-6l3.4-6
	c0.1-0.3,0.2-0.5,0.2-0.7c0-0.3-0.2-0.4-0.5-0.4c-0.4,0.2-1.5,0.7-3.4,1.5c0,0.1-0.1,0.1-0.2,0.1c-0.2,0-0.3-0.1-0.3-0.4
	c0-0.2,0.2-0.4,0.5-0.5c2.7-0.9,5-1.8,6.8-2.7c0.3-0.1,0.5-0.2,0.6-0.2c0.2,0,0.4,0.1,0.5,0.4l0.2,0.4c0,0.3-0.2,0.7-0.6,1.2
	c-1,1.3-2.3,3.1-3.7,5.6c-1.6,2.6-2.5,4.6-2.7,5.9v0.3c-0.1,0.1-0.1,0.2-0.1,0.2c0,0.6,0.2,0.9,0.7,0.9c0.8,0,1.8-0.6,3.1-1.8
	c1.1-1,1.9-2,2.5-2.9c1.4-2.2,2.8-4.4,4.4-6.4c4.1-5.4,7.2-8.8,9.2-10.2c1.4-0.9,2.6-1.3,3.7-1.3c1.5,0,2.3,0.7,2.3,2L442.8,663.2
	L442.8,663.2z"/>
<path id="path4036" inkscape:connector-curvature="0" class="st7" d="M352,683.5h13.8c0.7,0,1.6,0,1.6,1s-0.9,1-1.6,1H352v13.8
	c0,0.7,0,1.6-1,1.6s-1-0.9-1-1.6v-13.8h-13.8c-0.7,0-1.6,0-1.6-1s0.9-1,1.6-1H350v-13.8c0-0.7,0-1.6,1-1.6s1,0.9,1,1.6V683.5z"/>
<path id="path4254" inkscape:connector-curvature="0" class="st9" d="M463.7,150.8c-0.5,0-0.9-0.2-1.2-0.5c-0.3-0.4-0.4-0.7-0.4-1.2
	c0-0.4,0.1-0.8,0.4-1.1c0.3-0.4,0.7-0.6,1.2-0.6s0.9,0.1,1.2,0.4c0.3,0.3,0.5,0.7,0.5,1.2s-0.2,0.9-0.5,1.3
	C464.6,150.6,464.2,150.8,463.7,150.8L463.7,150.8z"/>
<g id="g4038">
	<g>
		<g>
			<defs>
				<rect id="SVGID_1_" x="46.2" y="625" width="99.2" height="110"/>
			</defs>
			<clipPath id="SVGID_2_">
				<use xlink:href="#SVGID_1_"  style="overflow:visible;"/>
			</clipPath>
			<g id="g4040" class="st10">
				<g id="g4046">
					<g id="g4048">
					</g>
					<g id="g4062">
						<g id="g4064">
						</g>
						<g id="g4074">
							<g>
								<g>
									<defs>
										<rect id="SVGID_3_" x="46.2" y="625" width="100" height="110"/>
									</defs>
									<clipPath id="SVGID_4_">
										<use xlink:href="#SVGID_3_"  style="overflow:visible;"/>
									</clipPath>
									<g id="g4076" class="st11">
										<g id="g4078" transform="translate(0,-0.674927)">
											<g id="g4080">
												<g>
													<g>
														<defs>
															<rect id="SVGID_5_" x="46.2" y="625.7" width="110" height="110"/>
														</defs>
														<clipPath id="SVGID_6_">
															<use xlink:href="#SVGID_5_"  style="overflow:visible;"/>
														</clipPath>
														<g id="g4082" class="st12">
															<g id="g4084">
																<g id="g4086" transform="matrix(1,0,0,-1,0,650)">
																	<path id="path4088" inkscape:connector-curvature="0" class="st13" d="M114.4-22.8l-0.2-0.3
																		c-1.6-1.6-3.4-2.5-5.3-2.6h-0.2c-2,0-4,0.8-6.2,2.3c-2.6-4.6-5.4-8.4-8.3-11.3c-1.3-1.3-2.6-2-3.8-2h-0.1
																		c-1.6,0-2.4,0.9-2.4,2.7v0.2c0,2.1,1.3,4.8,4,7.8c2.5,2.9,5,4.6,7.4,5.1c-0.2,0.2-0.4,0.5-0.9,0.9
																		c-3.2,3.4-5.9,7.1-8,10.8c-2.6,4.8-3.9,9-4,12.8c0,3.2,1,6,3.2,8.4s4.9,3.6,8.1,3.7H98c5.6,0,9.3-3.4,11.1-10.2
																		c0.5-1.8,0.7-3.9,0.7-6.2c0-6.6-2.3-14-6.8-22.1c2-1.3,4-1.9,6-2h0.2c1.9,0,3.4,0.5,4.6,1.6
																		c0.2,0.2,0.3,0.2,0.4,0.2C114.3-22.7,114.4-22.8,114.4-22.8z M107.8-2.8c0,4.1-0.8,7.9-2.4,11.2
																		c-2,4.3-4.9,6.4-8.5,6.4c-2.5,0-4.5-0.9-6-2.6s-2.2-3.9-2.2-6.4V5.4c0-3.8,1.1-8.2,3.4-13.2
																		c2.1-4.5,4.5-8.4,7.3-11.7c0.9-1.1,2-2,3.1-2.7C105.9-15.4,107.8-9,107.8-2.8L107.8-2.8z M101.9-23
																		c-0.5,0.4-1.2,1-2.2,1.8h-0.2c-1.4-0.2-3.2-1.8-5.2-5c-1.7-2.7-2.9-5-3.5-7c-0.2-0.5-0.2-0.8-0.2-1.1v-0.1
																		c0-0.6,0.3-1,0.8-1.1h0.2c0.5,0,1.2,0.3,1.9,1C96.4-31.5,99.3-27.7,101.9-23L101.9-23z"/>
																</g>
																<g id="g4090" transform="matrix(1,0,0,-1,0,650)">
																	<path id="path4092" inkscape:connector-curvature="0" class="st13" d="M153.3,20.4v-0.2c-0.1-0.1-0.1-0.1-0.1-0.2
																		c-0.4-1.9-0.6-4-0.7-6.3c0-0.2-0.1-0.3-0.3-0.3s-0.2,0.1-0.2,0.2v0.1c0,0.3,0,0.6,0.1,1.1s0.2,0.9,0.2,1.2
																		c0,0.8-0.1,1.4-0.4,1.6c-1.2,0.9-2.6,1.3-4.1,1.3h-0.5c-4.5,0-9.5-4.1-15-12.2c-2-3-3.9-6.4-5.8-10.2L121.2-14
																		c-0.4-0.7-1.4-2.7-3.1-6h10.8c0.2,0,0.3-0.1,0.3-0.2c-0.5-0.4-1-0.5-1.6-0.5h-5.2c-0.8,0-1.8,0-2.9-0.1h-1.9
																		c-8.1-15.4-15.4-27.2-22-35.6c-13.9-18-26.6-27-38-27c-4.9,0-7.7,2.1-8.5,6.2v0.2c0,0.2,0.1,0.3,0.2,0.3
																		c0.2-0.1,0.3-0.2,0.3-0.5c0.5-3.7,3.2-5.5,7.9-5.5c5.7,0,11.7,2.3,18,6.8c5.6,4.1,10.9,9.3,15.9,15.8
																		c3.8,5,7.9,11.3,12.2,19.1c3.5,6.6,7.1,13.3,10.7,19.9c-3.4,0-5.6-0.1-6.4-0.3c0-0.1,0-0.1-0.1-0.1
																		c-0.2,0-0.3,0.1-0.3,0.2s0.1,0.1,0.2,0.2c0.7,0.6,2,0.9,4,0.9h0.9c0.4-0.1,0.7-0.1,0.9-0.1h1.3
																		c5.2,9.4,10.3,17.9,15.4,25.5c7.3,11.1,13.7,16.6,19.1,16.6h0.3C152.1,22.1,153.3,21.5,153.3,20.4L153.3,20.4z"/>
																</g>
															</g>
														</g>
													</g>
												</g>
											</g>
										</g>
									</g>
								</g>
							</g>
						</g>
					</g>
				</g>
			</g>
		</g>
	</g>
</g>
<g id="g4178" transform="translate(0,-0.674927)" class="st14">
	<g id="g4180" transform="matrix(1,0,0,-1,0,650)">
		<path id="path4182" inkscape:connector-curvature="0" class="st15" d="M152.4,639.1v-0.2c-0.1-0.1-0.1-0.1-0.1-0.2
			c-0.5-2.7-0.9-5.6-1-8.9c0-0.3-0.1-0.4-0.4-0.4c-0.2,0-0.3,0.1-0.3,0.3v0.1c0,0.4,0,0.9,0.1,1.5c0.1,0.7,0.2,1.3,0.2,1.7
			c0,1.2-0.2,1.9-0.6,2.2c-1.7,1.3-3.6,1.9-5.8,1.9h-0.8c-6.4,0-13.5-5.8-21.2-17.3c-2.8-4.3-5.5-9.1-8.2-14.4l-7.3-15
			c-0.5-1-2-3.9-4.4-8.5h15.3c0.3,0,0.4-0.1,0.4-0.2c-0.7-0.5-1.5-0.8-2.2-0.8h-7.3c-1.2,0-2.5,0-4.1-0.1H102
			c-11.4-21.7-21.8-38.5-31.1-50.4c-19.8-25.3-37.7-38-53.8-38c-6.9,0-10.9,2.9-12,8.8v0.3c0,0.3,0.1,0.4,0.2,0.4
			c0.2-0.1,0.4-0.3,0.4-0.7c0.7-5.2,4.5-7.8,11.2-7.8c8.1,0,16.5,3.2,25.5,9.6c8,5.8,15.5,13.2,22.5,22.4c5.4,7,11.2,16,17.3,27
			c5,9.4,10.1,18.8,15.2,28.1c-4.9,0-7.9-0.2-9.1-0.4c0-0.1,0-0.1-0.1-0.1c-0.2,0-0.4,0.1-0.4,0.3c0,0.1,0.1,0.2,0.3,0.3
			c1,0.8,2.8,1.2,5.6,1.2H95c0.6-0.1,1-0.1,1.2-0.1H98c7.4,13.3,14.6,25.3,21.7,36.1c10.3,15.7,19.3,23.5,27,23.5h0.4
			C150.7,641.6,152.4,640.7,152.4,639.1z"/>
	</g>
	<g id="g4184" transform="matrix(1,0,0,-1,0,650)">
		<path id="path4186" inkscape:connector-curvature="0" class="st15" d="M143.7,569.3c0-0.1,0-0.2-0.1-0.4
			c-2.6-3.8-5.8-7.2-9.6-10.2c-4.7-3.8-8.9-5.7-12.6-5.7c-3.9,0-6.2,2.6-6.8,7.9c-7.4-8.1-13.1-15.6-17.1-22.4
			c-1.3-2.4-2.3-4.7-2.9-7.1c-0.1-0.4-0.2-0.7-0.4-0.7c-0.2,0-0.4,0.3-0.6,0.8c-0.9,2.5-1.3,3.6-1.3,3.3c0,0.4,0.3,1,0.8,1.8
			c2.6,4,6.3,8.7,11.1,14.1c3,3.4,6.5,7.2,10.3,11.5v1.1c0,1.5,0.1,2.9,0.2,4.1c0.7,5.8,1.9,10.2,3.7,13.3c0.4,0.7,1,1.3,1.6,1.7
			l2.5,1.4c0.1,0.1,0.2,0.1,0.3,0.1c0.2,0,0.3-0.1,0.3-0.3c0-0.1,0-0.2-0.1-0.4c-2.8-5.1-4.3-10.6-4.5-16.6
			c6.6,6.8,12.3,12.4,17.1,16.8c0.2,0.2,0.4,0.3,0.7,0.3c0.2,0,0.3-0.2,0.3-0.6c-0.1-0.4-0.1-0.5-0.1-0.4c-0.2-1-0.6-1.7-1.1-2.1
			c-6.2-5.1-11.8-10.3-16.8-15.5v-0.7c0-6,2.1-9,6.2-9c1.8,0,3.8,0.7,6.1,2c4.8,2.7,8.9,6.7,12.3,11.9c0.2,0.2,0.4,0.3,0.4,0.3
			C143.6,569.6,143.7,569.5,143.7,569.3z"/>
	</g>
</g>
<g id="g4226" transform="translate(0,-0.674927)" class="st14">
	<path id="path4228" inkscape:connector-curvature="0" class="st16" d="M195.3,98.1h-36.1l-6.4,4.6h54.1L181.6,41l-28.8,61.7
		l6.4-4.6L178.3,57L195.3,98.1L195.3,98.1z"/>
	<path id="path4230" inkscape:connector-curvature="0" class="st16" d="M243.4,92.7l-0.2,0.2l-0.1,0.1l-0.1,0.2l-0.2,0.2l-0.1,0.1
		l-0.1,0.2l-0.3,0.3l-0.1,0.1l-0.1,0.2l-0.2,0.1l-0.1,0.2l-0.1,0.1v0.1l-0.1,0.1l-0.1,0.1l-0.1,0.1v0.1l-0.2,0.2
		c-2.1,2.7-3.2,3.6-4.2,3.6c-1.4,0-2.2-1.2-2.8-3.7c-0.2-0.7-0.3-1.3-0.4-1.5c-2.2-9-3.2-13.2-3.2-14.5c3.9-6.9,7.1-10.8,8.8-10.8
		c0.5,0,1.3,0.3,2.2,0.7c1.1,0.6,1.7,0.8,2.4,0.8c1.9,0,3.2-1.4,3.2-3.2c0-1.9-1.5-3.3-3.7-3.3c-4,0-7.4,3.2-13.5,12.8l-1-4.9
		c-1.3-6.1-2.3-7.9-4.7-7.9c-2,0-5.1,0.8-10.6,2.6l-0.9,0.4l0.4,1.4c3.3-0.8,4.2-1,5-1c2.3,0,2.8,0.8,4.1,6.2l2.6,11l-7.4,10.5
		c-1.8,2.7-3.5,4.3-4.5,4.3c-0.5,0-1.4-0.3-2.3-0.8c-1.2-0.6-2.2-0.9-2.9-0.9c-1.7,0-3.1,1.4-3.1,3.2c0,2.3,1.8,3.7,4.5,3.7
		c2.8,0,3.9-0.8,8.3-6.2c2.4-2.9,4.3-5.3,8.1-10.5l2.7,10.7c1.2,4.6,2.3,6,5.1,6c3.4,0,5.8-2.1,11-10.2L243.4,92.7L243.4,92.7z"/>
</g>
<text transform="matrix(1 0 0 1 130.5003 156.9252)" class="st9 st17 st18">Texto Guía CSO132 </text>
<g id="text12726" transform="scale(1,-1)">
	<path id="path12819" class="st19" d="M100.1-324.6c0,15.2,0,18,0.2,21.2c0.2,3.5,1,5.2,3.7,5.7c1.2,0.2,2.8,0.3,3.9,0.3
		c1.2,0,1.8,0.2,1.8,0.9s-0.7,0.9-2.1,0.9c-3.9,0-11.2-0.3-13.6-0.3c-2.7,0-9,0.3-13.7,0.3c-1.5,0-2.2-0.2-2.2-0.9s0.6-0.9,1.7-0.9
		c1.3,0,2.5-0.1,3.3-0.3c3.3-0.7,4.1-2.3,4.3-5.7c0.2-3.2,0.2-6,0.2-21.2v-17.6c0-9.2,0-17.1-0.5-21.3c-0.4-2.9-0.9-5.1-2.9-5.5
		c-0.9-0.2-2.1-0.4-3.6-0.4c-1.2,0-1.6-0.3-1.6-0.8c0-0.7,0.7-1,2-1c2,0,4.6,0.2,6.9,0.2c2.4,0.1,4.6,0.1,5.7,0.1
		c4.1,0,7.7-0.1,12.2-0.3c4.5-0.1,9.7-0.3,16.9-0.3c5.2,0,5.7,0.5,6.3,2.7c0.8,2.9,1.5,10.4,1.5,11.5c0,1.2-0.1,1.7-0.8,1.7
		c-0.8,0-1-0.6-1.1-1.5c-0.2-1.9-1.4-4.7-2.6-6c-2.5-2.7-6.4-2.8-11.7-2.8c-7.8,0-10.4,0.7-12.1,2.2c-2.1,1.8-2.1,8.7-2.1,21.5
		V-324.6L100.1-324.6z"/>
	<path id="path12821" class="st19" d="M172.7-349.8c0.4,0,0.7-0.1,0.9-0.6l6.8-17.1c0.4-1-0.2-1.8-0.8-1.9c-0.9-0.1-1.1-0.4-1.1-0.9
		c0-0.6,1-0.6,2.6-0.7c7.4-0.2,13.8-0.2,16.9-0.2c3.3,0,3.8,0.2,3.8,0.9c0,0.6-0.4,0.9-1.2,0.9c-1,0-2,0.1-3.3,0.3
		c-1.6,0.3-4.1,1.4-7.5,9.1c-5.6,12.9-20.3,47.7-22.4,52.4c-0.9,1.9-1.3,2.7-2.6,2.7c-0.9,0-1.6-1-2.6-3.4l-23-53.5
		c-1.8-4.3-3.3-6.9-7.3-7.5c-0.8,0-1.8-0.1-2.6-0.1c-0.7,0-1-0.4-1-0.9c0-0.7,0.5-0.9,1.6-0.9c4.6,0,9.3,0.3,10.2,0.3
		c2.8,0,6.9-0.3,9.8-0.3c0.9,0,1.4,0.2,1.4,0.9c0,0.5-0.2,0.9-1.3,0.9h-1.3c-2.7,0-3.5,0.9-3.5,2.4c0,1,0.4,3.1,1.3,5.2l4.7,11.4
		c0.2,0.5,0.3,0.6,0.8,0.6L172.7-349.8L172.7-349.8z M153.8-345.1c-0.3,0-0.5,0.2-0.3,0.6L162-323c0.1,0.3,0.2,0.8,0.5,0.8
		c0.2,0,0.3-0.5,0.4-0.8l8.3-21.6c0.1-0.3,0-0.5-0.4-0.5H153.8L153.8-345.1z"/>
	<path id="path12823" class="st19" d="M226.7-342.2c0-9.2,0-17.1-0.5-21.3c-0.3-2.9-0.9-5.1-2.9-5.5c-0.9-0.2-2.1-0.4-3.6-0.4
		c-1.2,0-1.6-0.3-1.6-0.8c0-0.7,0.7-1,2-1c4,0,10.3,0.3,12.6,0.3c2.8,0,9.1-0.3,15.7-0.3c1.1,0,1.9,0.3,1.9,1c0,0.5-0.5,0.8-1.6,0.8
		c-1.5,0-3.7,0.2-5.1,0.4c-3,0.4-3.6,2.6-3.9,5.4c-0.5,4.3-0.5,12.2-0.5,21.4v41l12.6-0.3c8.9-0.2,11.6-3,11.8-5.6l0.1-1.1
		c0.1-1.5,0.3-2,1.1-2c0.6,0,0.8,0.6,0.9,1.6c0,2.6,0.3,9.5,0.3,11.6c0,1.5-0.1,2.1-0.8,2.1c-0.4,0-1.2-0.2-2.7-0.5
		c-1.5-0.2-3.7-0.5-6.9-0.5H216c-3.3,0-7.1,0.2-10,0.5c-2.5,0.2-3.5,1.2-4.3,1.2c-0.6,0-0.9-0.6-1.2-1.9c-0.2-0.8-2.1-9.9-2.1-11.5
		c0-1.1,0.2-1.6,0.9-1.6c0.6,0,0.9,0.4,1.1,1.2c0.2,0.8,0.7,2,1.7,3.5c1.5,2.2,3.9,2.7,9.7,2.9l14.9,0.4L226.7-342.2L226.7-342.2z"
		/>
	<path id="path12825" class="st19" d="M282.5-346.5c0-7.8,0-14.5-0.4-18.1c-0.3-2.5-0.8-4.1-2.6-4.5c-0.8-0.2-1.8-0.3-3.1-0.3
		c-1.1,0-1.4-0.5-1.4-0.9c0-0.6,0.6-0.9,1.7-0.9c1.8,0,4,0.1,6.1,0.2c2.1,0,4,0.1,5,0.1c2.6,0,5.9-0.1,10.2-0.2
		c4.3-0.2,9.6-0.3,16.2-0.3c3.3,0,4.1,0,4.7,2.2c0.5,1.7,1.2,7.5,1.2,9.4c0,0.9-0.1,2-0.8,2c-0.6,0-0.8-0.4-1-1.3
		c-0.6-3.5-1.6-5.3-3.8-6.3c-2.3-1-6-1.1-8.3-1.1c-9,0-11.7,1.3-11.9,7.1c-0.1,2.5,0,9.7,0,12.6v6.8c0,0.5,0.1,0.9,0.5,0.9
		c2.2,0,12.2-0.2,13.8-0.4c3.3-0.3,4.4-1.6,4.9-3.3c0.2-1.1,0.2-2.2,0.3-3.1c0-0.4,0.2-0.7,0.8-0.7c0.8,0,0.9,1.2,0.9,1.9
		c0,0.6,0.2,4,0.4,5.7c0.5,4.3,0.7,5.7,0.7,6.2s-0.3,0.9-0.7,0.9s-0.7-0.5-1.4-1.1c-0.8-0.9-2.1-1.1-4.2-1.3
		c-2-0.2-13.4-0.2-15.4-0.2c-0.5,0-0.6,0.4-0.6,0.9v21c0,0.5,0.2,0.8,0.6,0.8c1.8,0,12.3-0.2,13.8-0.4c4.4-0.4,5.1-1.6,5.8-3.1
		c0.5-1,0.6-2.5,0.6-3.1c0-0.7,0.1-1.1,0.7-1.1c0.7,0,0.9,1,1,1.4c0.2,1,0.4,4.7,0.5,5.6c0.2,3.9,0.7,4.9,0.7,5.5
		c0,0.4-0.1,0.8-0.6,0.8c-0.4,0-0.9-0.3-1.4-0.4c-0.7-0.1-2.1-0.4-3.7-0.5c-1.7-0.1-21.2,0-24,0c-2.5,0-8.1,0.2-12.7,0.2
		c-1.3,0-2-0.2-2-0.8c0-0.6,0.6-0.9,1.5-0.9c1.3,0,2.8-0.1,3.5-0.3c2.8-0.8,3.6-1.7,3.8-4.6c0.1-2.7,0.1-5.1,0.1-18L282.5-346.5
		L282.5-346.5z"/>
	<path id="path12827" class="st19" d="M383.3-305.8c3,4.4,5,7.2,7.3,7.8c1.4,0.4,2.6,0.6,3.6,0.6s1.6,0.3,1.6,0.9s-0.7,0.9-1.8,0.9
		c-3.7,0-7.8-0.3-9.8-0.3c-1.9,0-6.1,0.3-10,0.3c-1.4,0-2.1-0.3-2.1-0.9c0-0.7,0.6-0.9,1.2-0.9c0.8,0,2.2,0,3.2-0.3s1.7-1.1,1.7-1.8
		c0-0.8-0.3-2.4-1.1-3.8c-1.5-2.8-10.7-16.7-13.6-21.1c-3.9,6.8-8.4,14.1-12.7,22.1c-0.6,1.1-1,2.3-1,2.9s0.3,1.3,1.2,1.6
		c0.8,0.3,2.1,0.4,2.7,0.4c0.9,0,1.5,0.2,1.5,0.9c0,0.7-0.6,0.9-2,0.9c-3.7,0-9.3-0.3-10.7-0.3c-4.7,0-12.8,0.3-15.2,0.3
		c-1.3,0-2-0.2-2-0.8c0-0.7,0.4-1,1-1c1,0,2.6-0.2,4.2-0.7c3.5-1.1,5.9-3.5,8.3-7.5l17.2-28.5l-19.1-27.3c-3.4-4.8-5.3-6.7-8.2-7.5
		c-1.5-0.4-3-0.5-3.7-0.5c-0.8,0-1.4-0.3-1.4-0.9s0.5-0.9,1.5-0.9h1.7c1.6,0,6.5,0.3,8.4,0.3c2.5,0,8.8-0.3,9.4-0.3h1.8
		c1.3,0,2,0.2,2,0.9c0,0.6-0.6,0.9-1.2,0.9c-0.8,0-1.7,0.1-2.3,0.2c-0.9,0.2-1.8,0.8-1.9,1.7c-0.1,1.1,0.4,2.6,1.4,4.2l14.8,23.9
		c4.6-7.5,10.3-17.4,15.8-27.2c0.7-1.3,0.3-2.2-0.2-2.3c-0.9-0.2-1.4-0.5-1.4-1.1c0-0.7,0.8-0.9,3.4-1c7.7-0.2,15.6-0.2,18-0.2h3
		c1.1,0,1.9,0.3,1.9,1c0,0.6-0.6,0.8-1.3,0.8c-0.9,0-2.1,0.1-3.8,0.6c-2.6,0.8-4.1,2-5.8,4.2c-2.5,3.2-18.7,30.3-21.9,35.2
		L383.3-305.8L383.3-305.8z"/>
</g>
</svg>
