<?xml version="1.0" encoding="utf-8"?>
<!-- Generator: Adobe Illustrator 24.1.0, SVG Export Plug-In . SVG Version: 6.00 Build 0)  -->
<svg version="1.1" id="cuadros" xmlns="http://www.w3.org/2000/svg" xmlns:xlink="http://www.w3.org/1999/xlink" x="0px" y="0px"
	 viewBox="0 0 3543 4961" style="enable-background:new 0 0 3543 4961;" xml:space="preserve">
<image style="overflow:visible;opacity:0.72;enable-background:new    ;" width="1349" height="1346" id="矢量智能对象_副本_11" xlink:href="B0D6F27A65CFB669.png"  transform="matrix(0.1263 0 0 0.1171 390.8459 267.5062)">
</image>
<image style="overflow:visible;opacity:0.73;enable-background:new    ;" width="1654" height="1651" id="矢量智能对象" xlink:href="B0D6F27A65CFB66B.png"  transform="matrix(0.1263 0 0 0.1171 452.9776 142.4591)">
</image>
<image style="overflow:visible;opacity:0.85;enable-background:new    ;" width="1360" height="1356" id="矢量智能对象-2" xlink:href="B0D6F27A65CFB66E.png"  transform="matrix(0.1263 0 0 0.1171 557.4145 40.1266)">
</image>
<image style="overflow:visible;enable-background:new    ;" width="1176" height="1172" id="矢量智能对象-3" xlink:href="B0D6F27A65CFB66F.png"  transform="matrix(0.1263 0 0 0.1171 486.6955 73.8472)">
</image>
<image style="overflow:visible;enable-background:new    ;" width="1176" height="1172" id="矢量智能对象_副本_12" xlink:href="B0D6F27A65CFB66A.png"  transform="matrix(0.1263 0 0 0.1171 412.3142 572.7474)">
</image>
<image style="overflow:visible;enable-background:new    ;" width="1797" height="1792" id="矢量智能对象_副本_7" xlink:href="B0D6F27A65CFB665.png"  transform="matrix(0.1263 0 0 0.1171 250.9233 420.3024)">
</image>
<image style="overflow:visible;enable-background:new    ;" width="955" height="953" id="矢量智能对象_副本_15" xlink:href="B0D6F27A65CFB666.png"  transform="matrix(0.1263 0 0 0.1171 568.78 488.6802)">
</image>
<image style="overflow:visible;enable-background:new    ;" width="955" height="953" id="矢量智能对象_副本_16" xlink:href="B0D6F27A65CFB667.png"  transform="matrix(0.1263 0 0 0.1171 601.8665 313.5207)">
</image>
<image style="overflow:visible;enable-background:new    ;" width="1462" height="1459" id="矢量智能对象_副本_9" xlink:href="B0D6F27A65CFB679.png"  transform="matrix(0.1263 0 0 0.1171 329.4719 277.8097)">
</image>
<image style="overflow:visible;enable-background:new    ;" width="1462" height="1459" id="矢量智能对象_副本_17" xlink:href="8F110BB0B7055D32.png"  transform="matrix(0.1263 0 0 0.1171 206.2188 527.0842)">
</image>
<image style="overflow:visible;enable-background:new    ;" width="1176" height="1172" id="矢量智能对象_副本" xlink:href="8F110BB0B7055D35.png"  transform="matrix(0.1263 0 0 0.1171 452.9776 198.8942)">
</image>
<image style="overflow:visible;opacity:0.94;enable-background:new    ;" width="1599" height="1596" id="矢量智能对象-4" xlink:href="8F110BB0B7055D36.png"  transform="matrix(0.1263 0 0 0.1171 337.933 363.1648)">
</image>
<image style="overflow:visible;opacity:0.58;enable-background:new    ;" width="1155" height="1151" id="矢量智能对象_副本_13" xlink:href="8F110BB0B7055D34.png"  transform="matrix(0.1263 0 0 0.1171 556.7831 119.2763)">
</image>
<image style="overflow:visible;opacity:0.88;enable-background:new    ;" width="1599" height="1596" id="矢量智能对象_副本_2" xlink:href="8F110BB0B7055D33.png"  transform="matrix(0.1263 0 0 0.1171 561.203 204.046)">
</image>
<image style="overflow:visible;opacity:0.8;enable-background:new    ;" width="1897" height="1893" id="矢量智能对象_副本_3" xlink:href="8F110BB0B7055D2D.png"  transform="matrix(0.1263 0 0 0.1171 462.9541 354.1493)">
</image>
<image style="overflow:visible;opacity:0.75;enable-background:new    ;" width="853" height="850" id="矢量智能对象_副本_6" xlink:href="8F110BB0B7055D2E.png"  transform="matrix(0.1263 0 0 0.1171 635.5842 390.7969)">
</image>
<image style="overflow:visible;opacity:0.75;enable-background:new    ;" width="1412" height="1410" id="矢量智能对象_副本_14" xlink:href="8F110BB0B7055D2C.png"  transform="matrix(0.1263 0 0 0.1171 260.7734 512.5656)">
</image>
<image style="overflow:visible;opacity:0.92;enable-background:new    ;" width="1478" height="1475" id="矢量智能对象_副本_5" xlink:href="8F110BB0B7055D52.png"  transform="matrix(0.1263 0 0 0.1171 414.8399 576.0258)">
</image>
<image style="overflow:visible;opacity:0.83;enable-background:new    ;" width="1086" height="1084" id="矢量智能对象_副本_4" xlink:href="8F110BB0B7055D55.png"  transform="matrix(0.1263 0 0 0.1171 524.8332 512.5656)">
</image>
</svg>
